<svg height="512" viewBox="0 0 64 64" width="512" xmlns="http://www.w3.org/2000/svg"><path d="m11.648 43.937a1.038 1.038 0 0 0 .352.063 1 1 0 0 0 .937-.649l3-8a1 1 0 1 0 -1.874-.7l-3 8a1 1 0 0 0 .585 1.286z"/><path d="m17.4 43.8a1 1 0 0 0 1.4-.2l3-4a1 1 0 0 0 0-1.2l-3-4a1 1 0 0 0 -1.6 1.2l2.55 3.4-2.55 3.4a1 1 0 0 0 .2 1.4z"/><path d="m8.2 43.6a1 1 0 1 0 1.6-1.2l-2.55-3.4 2.55-3.4a1 1 0 1 0 -1.6-1.2l-3 4a1 1 0 0 0 0 1.2z"/><path d="m25 37h33a1 1 0 0 0 0-2h-33a1 1 0 0 0 0 2z"/><path d="m25 40h33a1 1 0 0 0 0-2h-33a1 1 0 0 0 0 2z"/><path d="m25 43h18a1 1 0 0 0 0-2h-18a1 1 0 0 0 0 2z"/><path d="m47 41h-1a1 1 0 0 0 0 2h1a1 1 0 0 0 0-2z"/><path d="m62 12h-60a1 1 0 0 0 -1 1v38a1 1 0 0 0 1 1h60a1 1 0 0 0 1-1v-38a1 1 0 0 0 -1-1zm-59 2h58v4h-58zm58 36h-58v-30h58z"/><path d="m25 34h33a1 1 0 0 0 1-1v-7a1 1 0 0 0 -1-1h-33a1 1 0 0 0 -1 1v7a1 1 0 0 0 1 1zm1-7h31v5h-31z"/></svg>